<?xml version="1.0" encoding="utf-8"?>
<!-- Generator: Adobe Illustrator 22.0.0, SVG Export Plug-In . SVG Version: 6.00 Build 0)  -->
<svg version="1.1" id="Слой_1" xmlns="http://www.w3.org/2000/svg" xmlns:xlink="http://www.w3.org/1999/xlink" x="0px" y="0px"
	 viewBox="0 0 32 32" style="enable-background:new 0 0 32 32;" xml:space="preserve">
<style type="text/css">
	.st0{fill:#F46140;}
	.st1{fill:#2F2F63;}
</style>
<g>
	<g>
		<path class="st0" d="M13.2,5c-4.1,5.4,1.4,8,2.8,8.8c1.5,0.9,3.7,3.3-0.5,6.4h4.6c1.9-1.9,1.7-4.2,0.6-5.2
			c-0.3-0.3-1.4-1.2-2.4-1.8c-0.6-0.4-2.6-1.8-2.9-3.4c-0.3-1.9,1.2-4.2,1.7-4.7H13.2z"/>
		<path class="st0" d="M20.2,20.4h-4.6c-0.1,0-0.2-0.1-0.2-0.1c0-0.1,0-0.2,0.1-0.2c1.6-1.2,2.4-2.3,2.3-3.5
			c-0.1-1.4-1.4-2.3-1.8-2.6c-0.1-0.1-0.2-0.1-0.4-0.2c-1.2-0.7-3.5-2-4-4.3c-0.3-1.4,0.2-3,1.5-4.6c0-0.1,0.1-0.1,0.2-0.1h4
			c0.1,0,0.2,0,0.2,0.1s0,0.2,0,0.2c-0.4,0.4-2,2.6-1.6,4.5c0.2,1.4,1.9,2.7,2.8,3.3c0.9,0.6,2.1,1.5,2.4,1.9
			c1.1,1.2,1.3,3.5-0.6,5.5C20.3,20.4,20.2,20.4,20.2,20.4z M16.1,20h3.9c1.7-1.8,1.6-3.9,0.6-4.9c-0.3-0.3-1.4-1.2-2.3-1.8
			c-1-0.7-2.7-2-3-3.6C15,7.9,16.1,6,16.8,5.2h-3.5c-1.2,1.5-1.6,3-1.3,4.2c0.4,2.1,2.6,3.3,3.8,4c0.1,0.1,0.3,0.2,0.4,0.2
			c0.5,0.3,2,1.3,2,2.9C18.2,17.7,17.5,18.8,16.1,20z"/>
	</g>
	<g>
		<path class="st0" d="M18.2,30.6c4.1-5.4-1.4-8-2.8-8.8c-1.5-0.9-3.7-3.3,0.5-6.4h-4.6c-1.9,1.9-1.7,4.2-0.6,5.2
			c0.3,0.3,1.4,1.2,2.4,1.8c0.6,0.4,2.6,1.8,2.9,3.4c0.3,1.9-1.2,4.2-1.7,4.7H18.2z"/>
		<path class="st0" d="M18.2,30.8h-4c-0.1,0-0.2-0.1-0.2-0.1c0-0.1,0-0.2,0-0.2c0.4-0.4,2-2.6,1.6-4.5c-0.2-1.4-1.9-2.7-2.8-3.3
			c-0.9-0.6-2.1-1.5-2.4-1.9c-1.1-1.2-1.3-3.5,0.6-5.5c0,0,0.1-0.1,0.1-0.1h4.6c0.1,0,0.2,0.1,0.2,0.1c0,0.1,0,0.2-0.1,0.2
			c-1.6,1.2-2.4,2.3-2.3,3.5c0.1,1.4,1.4,2.3,1.8,2.6c0.1,0.1,0.2,0.1,0.4,0.2c1.2,0.7,3.5,2,4,4.3c0.3,1.4-0.2,3-1.5,4.6
			C18.3,30.8,18.2,30.8,18.2,30.8z M14.6,30.4h3.5c1.2-1.5,1.6-3,1.3-4.2c-0.4-2.1-2.6-3.3-3.8-4c-0.1-0.1-0.3-0.2-0.4-0.2
			c-0.5-0.3-2-1.3-2-2.9c-0.1-1.1,0.6-2.3,2-3.5h-3.9c-1.7,1.8-1.6,3.9-0.6,4.9c0.3,0.3,1.4,1.2,2.3,1.8c1,0.7,2.7,2,3,3.6
			C16.3,27.7,15.2,29.6,14.6,30.4z"/>
	</g>
	<path class="st1" d="M10.4,22.5H8.3c-0.1,0-0.1,0-0.2-0.1c-1.5-0.9-3.2-3.7-3.1-6.7c0-1.8,0.7-4.2,3.6-5.9c0.1,0,0.1-0.1,0.2-0.1
		h0.9C9.2,9.2,8.7,8.2,8.5,7.2c-0.6-2.6,0.4-4.8,2.6-6c0.1,0,0.1-0.1,0.2-0.1h14.8c0.2,0,0.4,0.2,0.4,0.4S26.4,2,26.2,2H11.4
		C9,3.4,9,5.6,9.2,6.9c0.3,1.7,1.3,2.9,1.6,2.9c0.2,0,0.4,0.2,0.4,0.4c0,0.2-0.2,0.4-0.4,0.4h-2c-2.5,1.5-3.1,3.6-3.1,5.1
		c0,2.5,1.3,5.1,2.6,5.9h2c0.2,0,0.4,0.2,0.4,0.4C10.8,22.3,10.6,22.5,10.4,22.5z"/>
	<path class="st1" d="M24.9,10.6h-7.8c-0.2,0-0.4-0.2-0.4-0.4s0.2-0.4,0.4-0.4h7.7l1.7-0.9c0.2-0.1,0.4,0,0.5,0.2
		c0.1,0.2,0,0.4-0.2,0.5l-1.7,0.9C25.1,10.6,25,10.6,24.9,10.6z"/>
	<path class="st1" d="M17.5,22.3c-0.2,0-0.4-0.2-0.4-0.4c0-0.2,0.2-0.4,0.4-0.4l7.5,0l1.5-1.2c0.2-0.1,0.4-0.1,0.6,0.1
		c0.1,0.2,0.1,0.4-0.1,0.6l-1.6,1.3c-0.1,0.1-0.2,0.1-0.3,0.1L17.5,22.3C17.5,22.3,17.5,22.3,17.5,22.3z"/>
	<path class="st1" d="M26.3,11.4c-0.5,0.4-0.9,1.1-1.2,1.7c-0.3,0.7-0.4,1.4-0.5,2.1c-0.1,1.4,0.1,2.9,0.9,3.9
		c0.3,0.3,0.2,0.8-0.1,1.1c-0.3,0.3-0.8,0.2-1.1-0.1c0,0,0-0.1-0.1-0.1l0,0c-0.5-0.8-0.7-1.6-0.7-2.5c-0.1-0.8,0-1.6,0.2-2.4
		c0.2-0.8,0.5-1.5,0.8-2.2c0.4-0.7,0.9-1.4,1.6-1.8c0.1-0.1,0.2,0,0.3,0.1C26.4,11.3,26.4,11.4,26.3,11.4L26.3,11.4z"/>
	<path class="st1" d="M25.1,3c-0.3,0.3-0.5,0.8-0.6,1.2c-0.1,0.4-0.2,0.9-0.2,1.3c0,0.4,0,0.9,0.1,1.3c0,0.2,0.1,0.4,0.2,0.6
		c0.1,0.2,0.2,0.4,0.2,0.4c0.3,0.3,0.2,0.7,0,1c-0.3,0.3-0.7,0.2-1,0c0,0-0.1-0.1-0.1-0.1l0,0c-0.2-0.3-0.3-0.6-0.3-0.9
		c0-0.3-0.1-0.5-0.1-0.8c0-0.5,0-1,0.1-1.5c0.1-0.5,0.3-1,0.5-1.5c0.2-0.5,0.5-0.9,0.9-1.2c0.1-0.1,0.2-0.1,0.3,0
		C25.2,2.8,25.2,2.9,25.1,3L25.1,3z"/>
</g>
</svg>
