<?xml version="1.0" encoding="utf-8"?>
<!-- Generator: Adobe Illustrator 22.0.0, SVG Export Plug-In . SVG Version: 6.00 Build 0)  -->
<svg version="1.1" id="Слой_1" xmlns="http://www.w3.org/2000/svg" xmlns:xlink="http://www.w3.org/1999/xlink" x="0px" y="0px"
	 viewBox="0 0 259.3 73.5" style="enable-background:new 0 0 259.3 73.5;" xml:space="preserve">
<style type="text/css">
	.st0{fill:#2F2F63;}
	.st1{font-family:'GaramondPremrPro-MedSubh';}
	.st2{font-size:52px;}
	.st3{fill:#F46140;stroke:#F46140;stroke-linecap:round;stroke-linejoin:round;stroke-miterlimit:10;}
	.st4{fill:none;stroke:#2F2F63;stroke-width:2;stroke-linecap:round;stroke-linejoin:round;stroke-miterlimit:10;}
</style>
<text transform="matrix(1 0 0 1 63.5687 49.0433)" class="st0 st1 st2">Параграф</text>
<g>
	<path class="st3" d="M20.4,9.5c-10.3,13.5,3.4,19.7,7,21.9s9.3,8.1-1.1,15.8h11.4c4.6-4.8,4.1-10.3,1.6-13c-0.8-0.8-3.6-3-5.9-4.6
		c-1.6-1-6.5-4.5-7.2-8.5c-0.8-4.8,3-10.4,4.2-11.6H20.4z"/>
	<path class="st3" d="M32.7,73.1c10.3-13.5-3.4-19.7-7-21.9c-3.6-2.1-9.2-8.1,1.2-15.8H15.5c-4.6,4.8-4.1,10.3-1.6,13
		c0.8,0.8,3.6,3,5.9,4.6c1.6,1,6.5,4.5,7.2,8.5c0.8,4.8-3,10.4-4.2,11.6H32.7z"/>
	<path class="st4" d="M52.6,1.1H15.8c-11.9,6.6-4.2,21.2-1.2,21.4H9.4c-14.3,8-7.3,25.7-1.2,29.4h5.3"/>
	<polyline class="st4" points="30.2,22.4 49.5,22.4 53.8,20.2 	"/>
	<polyline class="st4" points="31,51.4 49.9,51.4 53.8,48.3 	"/>
	<g>
		<path class="st0" d="M52.9,25.6c-1.3,1.1-2.2,2.7-2.9,4.3c-0.7,1.7-1.1,3.4-1.2,5.2c-0.3,3.5,0.3,7.1,2.2,9.6
			c0.6,0.8,0.5,2-0.3,2.7c-0.8,0.6-2,0.5-2.7-0.3c0-0.1-0.1-0.1-0.1-0.2l0,0c-1.1-1.9-1.7-4-1.9-6.1s0-4.1,0.4-6s1.1-3.8,2.1-5.5
			s2.2-3.4,3.9-4.5c0.2-0.2,0.6-0.1,0.7,0.2C53.1,25.1,53.1,25.4,52.9,25.6L52.9,25.6z"/>
	</g>
	<g>
		<path class="st0" d="M49.9,4.6c-0.7,0.8-1.2,1.9-1.5,2.9c-0.3,1.1-0.4,2.2-0.5,3.3c0,1.1,0.1,2.2,0.3,3.3c0.1,0.5,0.2,1,0.4,1.5
			c0.2,0.5,0.4,0.9,0.6,1.1c0.7,0.7,0.6,1.8-0.1,2.5c-0.7,0.7-1.8,0.6-2.5-0.1c-0.1-0.1-0.2-0.2-0.2-0.3l-0.1-0.1
			c-0.5-0.8-0.6-1.5-0.8-2.2c-0.1-0.7-0.2-1.3-0.2-2c0-1.3,0.1-2.6,0.4-3.8c0.3-1.2,0.6-2.5,1.2-3.6C47.4,6,48.2,4.9,49.2,4
			c0.2-0.2,0.5-0.2,0.7,0.1C50.1,4.1,50.1,4.4,49.9,4.6L49.9,4.6z"/>
	</g>
</g>
</svg>
