<?xml version="1.0" encoding="utf-8"?>
<!-- Generator: Adobe Illustrator 22.0.0, SVG Export Plug-In . SVG Version: 6.00 Build 0)  -->
<svg version="1.1" id="Слой_1" xmlns="http://www.w3.org/2000/svg" xmlns:xlink="http://www.w3.org/1999/xlink" x="0px" y="0px"
	 viewBox="0 0 300 100" style="enable-background:new 0 0 300 100;" xml:space="preserve">
<style type="text/css">
	.st0{fill:#2F2F63;}
	.st1{font-family:'GaramondPremrPro-MedSubh';}
	.st2{font-size:52px;}
	.st3{fill:#F46140;stroke:#F46140;stroke-linecap:round;stroke-linejoin:round;stroke-miterlimit:10;}
	.st4{fill:none;stroke:#2F2F63;stroke-width:2;stroke-linecap:round;stroke-linejoin:round;stroke-miterlimit:10;}
</style>
<text transform="matrix(1 0 0 1 72.652 61.96)" class="st0 st1 st2">Параграф</text>
<g>
	<path class="st3" d="M29.5,22.4c-10.3,13.5,3.4,19.7,7,21.9c3.6,2.2,9.3,8.1-1.1,15.8h11.4c4.6-4.8,4.1-10.3,1.6-13
		c-0.8-0.8-3.6-3-5.9-4.6c-1.6-1-6.5-4.5-7.2-8.5c-0.8-4.8,3-10.4,4.2-11.6H29.5z"/>
	<path class="st3" d="M41.8,86c10.3-13.5-3.4-19.7-7-21.9C31.2,62,25.6,56,36,48.3H24.6c-4.6,4.8-4.1,10.3-1.6,13
		c0.8,0.8,3.6,3,5.9,4.6c1.6,1,6.5,4.5,7.2,8.5c0.8,4.8-3,10.4-4.2,11.6H41.8z"/>
	<path class="st4" d="M61.7,14H24.9c-11.9,6.6-4.2,21.2-1.2,21.4h-5.2c-14.3,8-7.3,25.7-1.2,29.4h5.3"/>
	<polyline class="st4" points="39.3,35.3 58.6,35.3 62.9,33.1 	"/>
	<polyline class="st4" points="40.1,64.3 59,64.3 62.9,61.2 	"/>
	<g>
		<path class="st0" d="M62,38.5c-1.3,1.1-2.2,2.7-2.9,4.3c-0.7,1.7-1.1,3.4-1.2,5.2c-0.3,3.5,0.3,7.1,2.2,9.6c0.6,0.8,0.5,2-0.3,2.7
			c-0.8,0.6-2,0.5-2.7-0.3c0-0.1-0.1-0.1-0.1-0.2l0,0c-1.1-1.9-1.7-4-1.9-6.1c-0.2-2.1,0-4.1,0.4-6c0.4-1.9,1.1-3.8,2.1-5.5
			c1-1.7,2.2-3.4,3.9-4.5c0.2-0.2,0.6-0.1,0.7,0.2C62.2,38,62.2,38.3,62,38.5L62,38.5z"/>
	</g>
	<g>
		<path class="st0" d="M59,17.5c-0.7,0.8-1.2,1.9-1.5,2.9c-0.3,1.1-0.4,2.2-0.5,3.3c0,1.1,0.1,2.2,0.3,3.3c0.1,0.5,0.2,1,0.4,1.5
			c0.2,0.5,0.4,0.9,0.6,1.1c0.7,0.7,0.6,1.8-0.1,2.5c-0.7,0.7-1.8,0.6-2.5-0.1c-0.1-0.1-0.2-0.2-0.2-0.3l-0.1-0.1
			c-0.5-0.8-0.6-1.5-0.8-2.2c-0.1-0.7-0.2-1.3-0.2-2c0-1.3,0.1-2.6,0.4-3.8c0.3-1.2,0.6-2.5,1.2-3.6c0.5-1.1,1.3-2.2,2.3-3.1
			c0.2-0.2,0.5-0.2,0.7,0.1C59.2,17,59.2,17.3,59,17.5L59,17.5z"/>
	</g>
</g>
</svg>
