<?xml version="1.0" encoding="utf-8"?>
<!-- Generator: Adobe Illustrator 22.0.0, SVG Export Plug-In . SVG Version: 6.00 Build 0)  -->
<svg version="1.1" id="Layer_1" xmlns="http://www.w3.org/2000/svg" xmlns:xlink="http://www.w3.org/1999/xlink" x="0px" y="0px"
	 viewBox="0 0 512 512" style="enable-background:new 0 0 512 512;" xml:space="preserve">
<style type="text/css">
	.st0{fill:#FF8878;}
	.st1{fill:#F46140;}
</style>
<path class="st0" d="M302.4,256l200-200c12.8-12.8,12.8-33.6,0-46.4c-12.8-12.8-33.6-12.8-46.4,0l-200,200L56,9.6
	C43.2-3.2,22.4-3.2,9.6,9.6C-3.2,22.4-3.2,43.2,9.6,56l200,200L9.6,456c-12.8,12.8-12.8,33.6,0,46.4c12.8,12.8,33.6,12.8,46.4,0
	l200-200l200,200c12.8,12.8,33.6,12.8,46.4,0c12.8-12.8,12.8-33.6,0-46.4L302.4,256z"/>
<path class="st1" d="M302.4,256l200-200c12.8-12.8,12.8-33.6,0-46.4c-12.8-12.8-33.6-12.8-46.4,0l-200,200v92.8l200,200
	c12.8,12.8,33.6,12.8,46.4,0c12.8-12.8,12.8-33.6,0-46.4L302.4,256z"/>
</svg>
