<?xml version="1.0" encoding="utf-8"?>
<!-- Generator: Adobe Illustrator 22.0.0, SVG Export Plug-In . SVG Version: 6.00 Build 0)  -->
<svg version="1.1" id="Capa_1" xmlns="http://www.w3.org/2000/svg" xmlns:xlink="http://www.w3.org/1999/xlink" x="0px" y="0px"
	 viewBox="0 0 390.7 390.7" style="enable-background:new 0 0 390.7 390.7;" xml:space="preserve">
<style type="text/css">
	.st0{fill:#2F2F63;}
</style>
<g>
	<g>
		<path class="st0" d="M379.7,326.6L265.3,212.2c30.8-54.2,23.2-124.5-23-170.7C187-13.8,96.9-13.8,41.5,41.5s-55.4,145.5,0,200.8
			c46.2,46.2,116.5,53.8,170.7,23l114.4,114.4c14.7,14.7,38.5,14.7,53.2,0C394.4,365.1,394.4,341.2,379.7,326.6z M214.1,214.1
			c-39.8,39.8-104.5,39.8-144.3,0C30,174.3,30,109.6,69.8,69.8c39.8-39.8,104.5-39.8,144.3,0C253.8,109.6,253.8,174.3,214.1,214.1z"
			/>
	</g>
</g>
</svg>
