<svg id="Слой_1" data-name="Слой 1" xmlns="http://www.w3.org/2000/svg" viewBox="0 0 30 30"><defs><style>.cls-1{fill:#2f2f63;}</style></defs><title>Instagram</title><path class="cls-1" d="M21.46,30H8.54A8.55,8.55,0,0,1,0,21.46V8.54A8.55,8.55,0,0,1,8.54,0H21.46A8.55,8.55,0,0,1,30,8.54V21.46A8.55,8.55,0,0,1,21.46,30ZM8.54,2.57a6,6,0,0,0-6,6V21.46a6,6,0,0,0,6,6H21.46a6,6,0,0,0,6-6V8.54a6,6,0,0,0-6-6Z"/><path class="cls-1" d="M15,22.68A7.68,7.68,0,1,1,22.68,15,7.68,7.68,0,0,1,15,22.68ZM15,9.89A5.11,5.11,0,1,0,20.11,15,5.11,5.11,0,0,0,15,9.89Z"/><path class="cls-1" d="M24.86,6.88A1.85,1.85,0,1,1,23,5,1.85,1.85,0,0,1,24.86,6.88Z"/></svg>