<?xml version="1.0" encoding="utf-8"?>
<!-- Generator: Adobe Illustrator 22.0.0, SVG Export Plug-In . SVG Version: 6.00 Build 0)  -->
<svg version="1.1" id="Layer_1" xmlns="http://www.w3.org/2000/svg" xmlns:xlink="http://www.w3.org/1999/xlink" x="0px" y="0px"
	 viewBox="0 0 30 30" style="enable-background:new 0 0 30 30;" xml:space="preserve">
<style type="text/css">
	.st0{fill:#2F2F63;}
</style>
<title>VK</title>
<path class="st0" d="M25.8,17.3c1,0.9,2,1.9,2.9,3c0.4,0.5,0.8,1,1.1,1.5c0.4,0.8,0,1.6-0.7,1.7h-4.4c-1.1,0.1-2.1-0.3-2.8-1.1
	c-0.6-0.6-1.2-1.3-1.7-1.9c-0.2-0.3-0.5-0.5-0.8-0.7c-0.4-0.3-1-0.3-1.3,0.1C18.1,19.9,18,20,18,20.1c-0.3,0.6-0.5,1.3-0.5,2
	c0,1-0.4,1.3-1.4,1.3c-2.2,0.2-4.3-0.3-6.2-1.3c-1.7-1-3.1-2.4-4.2-4c-2.2-3.1-4.1-6.4-5.6-9.9c-0.4-0.8-0.1-1.2,0.8-1.2
	c1.4,0,2.9,0,4.3,0c0.5,0,1,0.4,1.2,0.9c0.8,1.9,1.7,3.7,2.9,5.4c0.3,0.5,0.7,0.9,1.1,1.2c0.3,0.3,0.7,0.3,0.9,0
	c0.1-0.1,0.2-0.2,0.2-0.3c0.1-0.4,0.2-0.7,0.2-1.1c0.1-1.3,0.1-2.6-0.1-4c-0.1-0.8-0.7-1.4-1.4-1.5c-0.4-0.1-0.4-0.2-0.2-0.5
	c0.3-0.4,0.8-0.7,1.3-0.7h4.9c0.8,0.2,1,0.5,1.1,1.3v5.5c0,0.3,0.2,1.2,0.7,1.4c0.4,0.1,0.7-0.2,1-0.5c1.1-1.3,2.1-2.7,2.8-4.3
	c0.3-0.7,0.6-1.4,0.9-2.1C23,7.3,23.4,7,24,7h4.8c0.1,0,0.3,0,0.4,0c0.8,0.1,1,0.5,0.8,1.3c-0.5,1.2-1.1,2.3-1.9,3.3
	c-0.8,1.1-1.6,2.2-2.4,3.3C24.9,15.9,24.9,16.4,25.8,17.3z"/>
</svg>
