<?xml version="1.0" encoding="utf-8"?>
<!-- Generator: Adobe Illustrator 22.0.0, SVG Export Plug-In . SVG Version: 6.00 Build 0)  -->
<svg version="1.1" id="Capa_1" xmlns="http://www.w3.org/2000/svg" xmlns:xlink="http://www.w3.org/1999/xlink" x="0px" y="0px"
	 viewBox="0 0 400 400" style="enable-background:new 0 0 400 400;" xml:space="preserve">
<style type="text/css">
	.st0{fill:#2546A6;}
</style>
<g>
	<path class="st0" d="M182.6,17.3v323.6l-77.8-77.2c-6.8-6.8-17.9-6.8-24.7,0c-6.8,6.8-6.8,17.7,0,24.5l107.6,106.8
		c6.8,6.8,17.9,6.8,24.7,0l107.6-106.8c3.4-3.4,5.1-7.8,5.1-12.2c0-4.4-1.7-8.9-5.1-12.2c-6.8-6.8-17.9-6.8-24.7,0l-77.8,77.2V17.3
		C217.4,7.8,209.6,0,200,0C190.4,0,182.6,7.8,182.6,17.3z"/>
</g>
</svg>
