<?xml version="1.0" encoding="utf-8"?>
<!-- Generator: Adobe Illustrator 22.0.0, SVG Export Plug-In . SVG Version: 6.00 Build 0)  -->
<svg version="1.1" id="Capa_1" xmlns="http://www.w3.org/2000/svg" xmlns:xlink="http://www.w3.org/1999/xlink" x="0px" y="0px"
	 viewBox="0 0 400 400" style="enable-background:new 0 0 400 400;" xml:space="preserve">
<style type="text/css">
	.st0{fill:#2546A6;}
</style>
<g>
	<path class="st0" d="M217.4,382.7l0-323.6l77.8,77.2c6.8,6.8,17.9,6.8,24.7,0c6.8-6.8,6.8-17.7,0-24.5L212.3,5.1
		c-6.8-6.8-17.9-6.8-24.7,0L80.1,111.8c-3.4,3.4-5.1,7.8-5.1,12.2c0,4.4,1.7,8.9,5.1,12.2c6.8,6.8,17.9,6.8,24.7,0l77.8-77.2
		l0,323.6c0,9.6,7.8,17.3,17.4,17.3C209.6,400,217.4,392.2,217.4,382.7z"/>
</g>
</svg>
