<?xml version="1.0" encoding="utf-8"?>
<!-- Generator: Adobe Illustrator 22.0.0, SVG Export Plug-In . SVG Version: 6.00 Build 0)  -->
<svg version="1.1" id="Capa_1" xmlns="http://www.w3.org/2000/svg" xmlns:xlink="http://www.w3.org/1999/xlink" x="0px" y="0px"
	 viewBox="0 0 200 300" style="enable-background:new 0 0 200 300;" xml:space="preserve">
<style type="text/css">
	.st0{fill:#F6871F;}
</style>
<path class="st0" d="M0,15.6c0,8.6,7.5,15.6,16.6,15.6h30.2c33.8,0.1,61.2,25.6,61.2,57.2l0,153.9l-29.2-32.1
	c-4.4-7.5-14.6-10.3-22.6-6.1c-8.1,4.2-11,13.6-6.5,21.1c1,1.7,2.4,3.3,4,4.5l58.4,64.8c5.9,6.6,16.4,7.4,23.5,1.9
	c0.7-0.6,1.4-1.2,2.1-1.9l58.4-64.8c5.9-6.6,5-16.4-2-21.9c-7-5.5-17.5-4.7-23.5,1.9l-29.2,32.1V88.3C141.3,39.6,99,0.1,46.8,0
	L16.7,0C7.4,0,0,7,0,15.6z"/>
</svg>
