<?xml version="1.0" encoding="utf-8"?>
<!-- Generator: Adobe Illustrator 22.0.0, SVG Export Plug-In . SVG Version: 6.00 Build 0)  -->
<svg version="1.1" id="Слой_1" xmlns="http://www.w3.org/2000/svg" xmlns:xlink="http://www.w3.org/1999/xlink" x="0px" y="0px"
	 viewBox="0 0 200 300" style="enable-background:new 0 0 200 300;" xml:space="preserve">
<style type="text/css">
	.st0{fill:#F6871F;}
</style>
<path class="st0" d="M62.4,5.6L3.9,70.3c-5.9,6.6-5,16.4,2,21.9s17.6,4.7,23.5-1.9l29.3-32.1v153.6c0.1,48.7,42.4,88.1,94.7,88.2
	h29.9c9.2,0,16.7-7,16.7-15.5s-7.5-15.5-16.7-15.5h-30.2c-33.9-0.1-61.3-25.6-61.3-57.1V58.1L121,90.2c5.9,6.6,16.5,7.4,23.5,1.9
	c7-5.5,8-15.3,2-21.9L88.1,5.5C82.1-1,71.6-1.9,64.6,3.6C63.8,4.2,63.1,4.9,62.4,5.6L62.4,5.6z"/>
</svg>
