<?xml version="1.0" encoding="utf-8"?>
<!-- Generator: Adobe Illustrator 22.0.0, SVG Export Plug-In . SVG Version: 6.00 Build 0)  -->
<svg version="1.1" id="Capa_1" xmlns="http://www.w3.org/2000/svg" xmlns:xlink="http://www.w3.org/1999/xlink" x="0px" y="0px"
	 viewBox="0 0 512 512" style="enable-background:new 0 0 512 512;" xml:space="preserve">
<style type="text/css">
	.st0{fill:#A2A2A2;}
</style>
<g>
	<g>
		<g>
			<path class="st0" d="M96,192h256c5.9,0,10.7-4.8,10.7-10.7s-4.8-10.7-10.7-10.7H96c-5.9,0-10.7,4.8-10.7,10.7S90.1,192,96,192z"
				/>
			<path class="st0" d="M106.7,341.3c0,5.9,4.8,10.7,10.7,10.7h128c5.9,0,10.7-4.8,10.7-10.7s-4.8-10.7-10.7-10.7h-128
				C111.4,330.7,106.7,335.4,106.7,341.3z"/>
			<path class="st0" d="M490.7,314.7c0-40.5,19.6-74.2,19.8-74.6c2-3.3,2-7.4,0.1-10.7c-1.9-3.3-5.4-5.4-9.3-5.4h-14.9
				c-5.4-10.9-17.1-37.9-17.1-69.3c0-40.5,19.6-74.2,19.8-74.6c2-3.3,2-7.4,0.1-10.7c-1.9-3.3-5.4-5.4-9.3-5.4H64
				C28.7,64,0,92.7,0,128v53.3c0,27.5,17.6,50.8,42,59.9c-12.6,11.7-20.7,28.3-20.7,46.8v53.3c0,35.3,28.7,64,64,64h213.3v32
				c0,4.1,2.4,7.8,6,9.6c3.7,1.8,8.1,1.3,11.3-1.3l46.7-37.3l46.7,37.3c1.9,1.5,4.3,2.3,6.7,2.3c1.6,0,3.1-0.3,4.6-1.1
				c3.7-1.8,6-5.5,6-9.6v-32h74.7c3.8,0,7.4-2.1,9.3-5.4c1.9-3.3,1.9-7.4-0.1-10.7C510.3,388.9,490.7,355.2,490.7,314.7z
				 M21.3,181.3V128c0-23.5,19.1-42.7,42.7-42.7h398.9c-3.5,8.2-7.4,19.3-10.4,32H160c-5.9,0-10.7,4.8-10.7,10.7s4.8,10.7,10.7,10.7
				h289.1c-0.5,5.2-1.1,10.5-1.1,16c0,28.7,8.3,53.9,14.9,69.3H64C40.5,224,21.3,204.9,21.3,181.3z M405.3,415.1l-36-28.8
				c-3.9-3.1-9.4-3.1-13.3,0l-36,28.8V298.7h85.3V415.1z M426.7,384v-85.3h43.7c-0.5,5.2-1.1,10.5-1.1,16c0,28.7,8.3,53.9,14.9,69.3
				H426.7z M473.9,277.3H181.3c-5.9,0-10.7,4.8-10.7,10.7s4.8,10.7,10.7,10.7h117.3V384H85.3c-23.5,0-42.7-19.1-42.7-42.7V288
				c0-23.5,19.1-42.7,42.7-42.7H480h4.3C480.7,253.5,476.8,264.6,473.9,277.3z"/>
		</g>
	</g>
</g>
</svg>
