<?xml version="1.0" encoding="utf-8"?>
<!-- Generator: Adobe Illustrator 22.0.0, SVG Export Plug-In . SVG Version: 6.00 Build 0)  -->
<svg version="1.1" id="Capa_1" xmlns="http://www.w3.org/2000/svg" xmlns:xlink="http://www.w3.org/1999/xlink" x="0px" y="0px"
	 viewBox="0 0 512 512" style="enable-background:new 0 0 512 512;" xml:space="preserve">
<style type="text/css">
	.st0{opacity:0.6;fill:#2F2F63;}
	.st1{fill:#E3E7F2;}
	.st2{fill:#FFFFFF;}
	.st3{fill:#2F2F63;}
</style>
<g>
	<circle class="st0" cx="256" cy="246.2" r="246.2"/>
	<ellipse class="st1" cx="256" cy="246.2" rx="216.6" ry="246.2"/>
	<path class="st2" d="M39.4,246.2C39.4,110.2,136.4,0,256,0C120.1,0,9.8,110.2,9.8,246.2S120.1,492.3,256,492.3
		C136.4,492.3,39.4,382.1,39.4,246.2z"/>
	<g>
		<path class="st3" d="M256,512C114.6,512,0,397.4,0,256S114.6,0,256,0s256,114.6,256,256C511.8,397.3,397.3,511.8,256,512z
			 M256,19.7C125.5,19.7,19.7,125.5,19.7,256S125.5,492.3,256,492.3S492.3,386.5,492.3,256C492.2,125.6,386.4,19.8,256,19.7z"/>
		<path class="st3" d="M167.4,354.5c-4,0-7.6-2.4-9.1-6.1c-1.5-3.7-0.7-7.9,2.1-10.7l177.2-177.2c2.5-2.5,6.1-3.5,9.5-2.6
			c3.4,0.9,6.1,3.6,7,7s-0.1,7.1-2.6,9.5L174.3,351.6C172.5,353.4,170,354.5,167.4,354.5z"/>
		<path class="st3" d="M344.6,354.5c-2.6,0-5.1-1-7-2.9L160.4,174.3c-3.8-3.9-3.8-10,0.1-13.9s10-3.8,13.9-0.1l177.2,177.2
			c2.8,2.8,3.7,7,2.1,10.7S348.6,354.5,344.6,354.5z"/>
	</g>
</g>
</svg>
